<svg aria-hidden="true" style="position: absolute; width: 0; height: 0; overflow: hidden;" version="1.1" xmlns="http://www.w3.org/2000/svg" xmlns:xlink="http://www.w3.org/1999/xlink">
<defs>
<symbol id="icon-layers" viewBox="0 0 32 32">
<path d="M30.765 7.262l-11.543-6.515c-1.571-0.887-4.271-0.888-5.845 0l-11.543 6.515c-0.883 0.499-1.368 1.197-1.368 1.967s0.486 1.468 1.368 1.966l11.543 6.516c0.786 0.444 1.824 0.688 2.922 0.688s2.137-0.245 2.923-0.688l11.543-6.516c0.883-0.498 1.369-1.196 1.369-1.966s-0.487-1.468-1.369-1.967zM30.239 10.265l-11.543 6.516c-1.238 0.699-3.556 0.7-4.794 0l-11.543-6.516c-0.524-0.296-0.824-0.674-0.824-1.036s0.3-0.74 0.824-1.037l11.543-6.516c0.619-0.35 1.493-0.55 2.396-0.55 0.904 0 1.778 0.201 2.397 0.55l11.543 6.516c0.524 0.296 0.825 0.674 0.825 1.037 0.001 0.362-0.299 0.74-0.824 1.036zM30.765 14.099c-0.256-0.145-0.582-0.055-0.729 0.203-0.145 0.257-0.054 0.583 0.203 0.728 0.524 0.296 0.825 0.674 0.825 1.036s-0.301 0.74-0.825 1.036l-11.543 6.516c-1.298 0.733-3.494 0.734-4.794 0l-11.543-6.516c-0.524-0.296-0.824-0.674-0.824-1.036s0.3-0.74 0.824-1.036c0.257-0.145 0.348-0.471 0.203-0.728s-0.473-0.349-0.729-0.203c-0.883 0.498-1.368 1.197-1.368 1.967s0.485 1.469 1.368 1.967l11.543 6.516c0.819 0.462 1.871 0.694 2.922 0.694s2.104-0.231 2.923-0.694l11.543-6.516c0.883-0.498 1.369-1.197 1.369-1.967s-0.486-1.469-1.368-1.967zM30.765 20.804c-0.256-0.145-0.582-0.055-0.729 0.203-0.145 0.257-0.054 0.583 0.203 0.728 0.524 0.296 0.825 0.674 0.825 1.036s-0.301 0.74-0.825 1.037l-11.543 6.516c-1.298 0.733-3.494 0.734-4.794 0l-11.543-6.517c-0.524-0.296-0.824-0.674-0.824-1.037 0-0.362 0.3-0.74 0.824-1.036 0.257-0.145 0.348-0.471 0.203-0.728s-0.473-0.349-0.729-0.203c-0.881 0.499-1.367 1.197-1.367 1.968s0.485 1.469 1.368 1.967l11.543 6.516c0.819 0.462 1.871 0.694 2.922 0.694 1.052 0 2.104-0.231 2.923-0.694l11.543-6.516c0.883-0.499 1.369-1.197 1.369-1.967s-0.487-1.469-1.369-1.967z"></path>
</symbol>
<symbol id="icon-envelope" viewBox="0 0 16 16">
<path d="M15 2h-14c-0.552 0-1 0.447-1 1v10c0 0.553 0.448 1 1 1h14c0.552 0 1-0.447 1-1v-10c0-0.553-0.448-1-1-1zM13 4l-5 4-5-4h10zM14 12h-12v-7l6 5 6-5v7z"></path>
</symbol>
<symbol id="icon-help_outline" viewBox="0 0 24 24">
<path d="M12 6q1.641 0 2.813 1.172t1.172 2.813q0 1.266-1.5 2.602t-1.5 2.414h-1.969q0-1.078 0.469-1.852t1.031-1.125 1.031-0.867 0.469-1.172q0-0.797-0.609-1.383t-1.406-0.586-1.406 0.586-0.609 1.383h-1.969q0-1.641 1.172-2.813t2.813-1.172zM12 20.016q3.281 0 5.648-2.367t2.367-5.648-2.367-5.648-5.648-2.367-5.648 2.367-2.367 5.648 2.367 5.648 5.648 2.367zM12 2.016q4.125 0 7.055 2.93t2.93 7.055-2.93 7.055-7.055 2.93-7.055-2.93-2.93-7.055 2.93-7.055 7.055-2.93zM11.016 18v-2.016h1.969v2.016h-1.969z"></path>
</symbol>
<symbol id="icon-support" viewBox="0 0 24 24">
<path d="M12 2.016q-2.063 0-3.867 0.773t-3.188 2.156-2.156 3.188-0.773 3.867 0.773 3.867 2.156 3.188 3.188 2.156 3.867 0.773 3.867-0.773 3.188-2.156 2.156-3.188 0.773-3.867-0.773-3.867-2.156-3.188-3.188-2.156-3.867-0.773zM19.453 9.141l-2.766 1.125q-0.375-1.031-1.148-1.805t-1.805-1.148l1.125-2.766q1.594 0.609 2.789 1.805t1.805 2.789zM12 15q-0.844 0-1.523-0.398t-1.078-1.078-0.398-1.523 0.398-1.523 1.078-1.078 1.523-0.398 1.523 0.398 1.078 1.078 0.398 1.523-0.398 1.523-1.078 1.078-1.523 0.398zM9.141 4.547l1.172 2.766q-1.031 0.375-1.828 1.148t-1.172 1.852l-2.766-1.172q0.609-1.594 1.805-2.789t2.789-1.805zM4.547 14.859l2.766-1.125q0.375 1.031 1.148 1.805t1.852 1.148l-1.172 2.766q-1.594-0.609-2.789-1.805t-1.805-2.789zM14.859 19.453l-1.125-2.766q1.031-0.375 1.805-1.148t1.148-1.852l2.766 1.172q-0.609 1.594-1.805 2.789t-2.789 1.805z"></path>
</symbol>
<symbol id="icon-shopping-cart" viewBox="0 0 24 24">
<path d="M11 21c0-0.552-0.225-1.053-0.586-1.414s-0.862-0.586-1.414-0.586-1.053 0.225-1.414 0.586-0.586 0.862-0.586 1.414 0.225 1.053 0.586 1.414 0.862 0.586 1.414 0.586 1.053-0.225 1.414-0.586 0.586-0.862 0.586-1.414zM22 21c0-0.552-0.225-1.053-0.586-1.414s-0.862-0.586-1.414-0.586-1.053 0.225-1.414 0.586-0.586 0.862-0.586 1.414 0.225 1.053 0.586 1.414 0.862 0.586 1.414 0.586 1.053-0.225 1.414-0.586 0.586-0.862 0.586-1.414zM7.221 7h14.57l-1.371 7.191c-0.046 0.228-0.166 0.425-0.332 0.568-0.18 0.156-0.413 0.246-0.688 0.241h-9.734c-0.232 0.003-0.451-0.071-0.626-0.203-0.19-0.143-0.329-0.351-0.379-0.603zM1 2h3.18l0.848 4.239c0.108 0.437 0.502 0.761 0.972 0.761h1.221l-0.4-2h-0.821c-0.552 0-1 0.448-1 1 0 0.053 0.004 0.105 0.012 0.155 0.004 0.028 0.010 0.057 0.017 0.084l1.671 8.347c0.149 0.751 0.57 1.383 1.14 1.811 0.521 0.392 1.17 0.613 1.854 0.603h9.706c0.748 0.015 1.455-0.261 1.995-0.727 0.494-0.426 0.848-1.013 0.985-1.683l1.602-8.402c0.103-0.543-0.252-1.066-0.795-1.17-0.065-0.013-0.13-0.019-0.187-0.018h-16.18l-0.84-4.196c-0.094-0.462-0.497-0.804-0.98-0.804h-4c-0.552 0-1 0.448-1 1s0.448 1 1 1z"></path>
</symbol>
</defs>
</svg>
